<svg xmlns="http://www.w3.org/2000/svg" viewBox="0 0 40.64 197.13"><defs><style>.a{fill:#17a9b6;}</style></defs><title>資產 1</title><circle class="a" cx="1.89" cy="130.79" r="1.89"/><circle class="a" cx="1.89" cy="109.31" r="1.89"/><circle class="a" cx="1.89" cy="87.82" r="1.89"/><circle class="a" cx="1.89" cy="66.34" r="1.89"/><circle class="a" cx="1.89" cy="44.86" r="1.89"/><circle class="a" cx="20.32" cy="130.79" r="1.89"/><circle class="a" cx="20.32" cy="109.31" r="1.89"/><circle class="a" cx="20.32" cy="87.82" r="1.89"/><circle class="a" cx="20.32" cy="66.34" r="1.89"/><circle class="a" cx="20.32" cy="44.86" r="1.89"/><circle class="a" cx="38.75" cy="130.79" r="1.89"/><circle class="a" cx="38.75" cy="109.31" r="1.89"/><circle class="a" cx="38.75" cy="87.82" r="1.89"/><circle class="a" cx="38.75" cy="66.34" r="1.89"/><circle class="a" cx="1.89" cy="195.24" r="1.89"/><circle class="a" cx="1.89" cy="173.76" r="1.89"/><circle class="a" cx="1.89" cy="152.27" r="1.89"/><circle class="a" cx="20.32" cy="195.24" r="1.89"/><circle class="a" cx="20.32" cy="173.76" r="1.89"/><circle class="a" cx="20.32" cy="152.27" r="1.89"/><circle class="a" cx="38.75" cy="195.24" r="1.89"/><circle class="a" cx="38.75" cy="173.76" r="1.89"/><circle class="a" cx="38.75" cy="152.27" r="1.89"/><circle class="a" cx="38.75" cy="44.86" r="1.89"/><circle class="a" cx="1.89" cy="23.37" r="1.89"/><circle class="a" cx="1.89" cy="1.89" r="1.89"/><circle class="a" cx="20.32" cy="23.37" r="1.89"/><circle class="a" cx="20.32" cy="1.89" r="1.89"/><circle class="a" cx="38.75" cy="23.37" r="1.89"/><circle class="a" cx="38.75" cy="1.89" r="1.89"/></svg>