<svg xmlns="http://www.w3.org/2000/svg" viewBox="0 0 385.1 144.59"><defs><style>.a,.b{fill:#fff;}.b{opacity:0.49;isolation:isolate;}</style></defs><title>資產 1</title><path class="a" d="M133,31.16h18.14v6.3H123V32.77a44.76,44.76,0,0,1,11.23-11.14q9-6.3,8.29-9.36-.17-4.68-5.18-4.68-5.18-.16-6.39,6l-7.78-1.45Q125.4,1.29,138.53,1.29q11.92.48,12.79,10.17.86,6.78-8.47,11.79A62,62,0,0,0,133,31.16Z"/><path class="a" d="M176,28.74l8.64-1.61q.86,5.17,6.39,5.17,5.35-.16,5.53-5,.17-5-8.29-5h-3.46v-6h3.28q7.6,0,7.6-4.68-.17-4.52-4.84-4.52a6.18,6.18,0,0,0-6,5.17l-8.12-1.45q2.42-9.52,14.86-9.69,11.92.33,12.79,9.36.17,6.62-8.12,8.4V19q8.29,1.29,9,8.72-.69,9.85-14.69,10.17Q178.76,38.58,176,28.74Z"/><path class="a" d="M232.77,18.89H239v2.58h14.86v4.36h-19.7v.81a4.11,4.11,0,0,0-.17,1h16.76q-.17,3.23-.52,6-.17,5.33-6.39,5-2.25.16-8.12.16a41.77,41.77,0,0,0-1.38-4.68h6.39c1.84.11,2.76-.27,2.76-1.13l.17-1.13H233.12q-1.55,3.88-8.12,7.75a64,64,0,0,0-5-4q7.78-3.87,7.26-9.69h-5q-.69,6-5.36,13.24-.69-.65-2.59-2.26a29.46,29.46,0,0,0-2.76-2.58q4.67-6.46,4.32-17.28V1.29Q235,1.13,250.39,0L253,4.84,227.95,6q-3.63.16-5.18.16V7.59H252.3V18.41H222.75l-.17,3.07h10.19Zm12.79-7.1H222.75V14h22.81Z"/><rect class="b" x="164.39" y="1.89" width="1.76" height="36.36"/><path class="a" d="M98.22,141.84H86.81V125.76h3.5V139h7.91Z"/><path class="a" d="M107.81,137.76l1,.29q-.84,3.13-4.48,3.13-4.76-.22-4.9-5.38.21-5.38,4.83-5.68,4.48.15,4.62,5.75v.22H100.6q.14,4.08,3.71,4.22Q107.25,140.31,107.81,137.76Zm-7.14-2.55h7.14q-.07-4.07-3.5-4.15-3.43.23-3.64,4.16Z"/><path class="a" d="M111.8,133.54l-1-.36q.63-3.13,4.48-3.06,4.2-.15,4,3.78v4.73a3.15,3.15,0,0,0,.56,2.26h-1a3,3,0,0,1-.56-2q-1.12,2.18-4.48,2.26-3.15-.07-3.22-2.84t3.71-3.35q3.5-.29,4-1.16.21-3-2.94-2.84Q112.22,130.93,111.8,133.54Zm6.51,3.2v-2.11q-.49.87-3.43,1.24-3.57.29-3.36,2.47-.14,2,2.73,2,3.75-.17,4.06-3.59Z"/><path class="a" d="M125.45,131.21q-2.45.22-2.59,4V141h-1V130.41h1v2h.07a2.91,2.91,0,0,1,2.66-2.26,2.68,2.68,0,0,1,1.89.58l-.49,1A2.21,2.21,0,0,0,125.45,131.21Z"/><path class="a" d="M136.72,134.2V141h-1v-6.62q.07-3.42-2.87-3.35t-3.43,3.42V141h-1V130.41h1v2.18a4,4,0,0,1,3.71-2.47Q136.79,130.05,136.72,134.2Z"/><path class="a" d="M139.31,126.41h1V128h-1Zm0,3.93h1V141h-1Z"/><path class="a" d="M151.21,134.2V141h-1v-6.62q.07-3.42-2.87-3.35t-3.43,3.42V141h-1V130.41h1v2.18a4,4,0,0,1,3.71-2.47Q151.28,130.05,151.21,134.2Z"/><path class="a" d="M162.2,130.34v9.24q.21,5.24-4.76,5a5,5,0,0,1-3.85-1.6l.56-.58a4.59,4.59,0,0,0,3.29,1.31q3.92.07,3.78-3.64v-1.46q-.84,2-3.78,2-4.2-.15-4.27-5.09.21-5.09,4.41-5.38a4,4,0,0,1,3.64,2v-1.82Zm-1,5.68v-1.6a3.38,3.38,0,0,0-3.34-3.42h0q-3.5.15-3.64,4.51.07,4.37,3.5,4.44t3.52-3.95Z"/><path class="a" d="M182.92,128.81h-7.56v3.86h6.58v2.91h-6.58v6.26h-3.5v-16h11.06Z"/><path class="a" d="M191.74,141.18q-4.55-.29-4.76-5.31.21-5.6,5-5.75,4.34.22,4.55,5.6Q196.43,141.11,191.74,141.18Zm.07-10.11q-3.64.15-3.71,4.8.14,4.29,3.71,4.51,3.5-.07,3.64-4.59-.21-4.43-3.64-4.72Z"/><path class="a" d="M202.1,131.21q-2.45.22-2.59,4V141h-1V130.41h1v2h.07a2.91,2.91,0,0,1,2.66-2.26,2.68,2.68,0,0,1,1.89.58l-.49,1A2.21,2.21,0,0,0,202.1,131.21Z"/><path class="a" d="M224.5,128.81h-5v13H216v-13h-5v-3h13.5Z"/><path class="a" d="M232.06,141.18q-4.55-.29-4.76-5.31.21-5.6,5-5.75,4.34.22,4.55,5.6Q236.75,141.11,232.06,141.18Zm.07-10.11q-3.64.15-3.71,4.8.14,4.29,3.71,4.51,3.5-.07,3.64-4.59-.21-4.43-3.64-4.72Z"/><path class="a" d="M252.64,134.2V141h-1v-6.62q.07-3.49-2.45-3.35t-2.94,3.42V141h-1v-6.62q.07-3.49-2.45-3.35-2.73.07-2.87,3.49V141h-1V130.34h1v2.11a3.13,3.13,0,0,1,3.08-2.33,2.84,2.84,0,0,1,3.14,2.51v.11a3.19,3.19,0,0,1,3.22-2.62Q252.71,130.05,252.64,134.2Z"/><path class="a" d="M259.22,141.18q-4.55-.29-4.76-5.31.21-5.6,5-5.75,4.34.22,4.55,5.6Q263.91,141.11,259.22,141.18Zm.07-10.11q-3.64.15-3.71,4.8.14,4.29,3.71,4.51,3.5-.07,3.64-4.59-.21-4.43-3.64-4.72Z"/><path class="a" d="M269.58,131.21q-2.45.22-2.59,4V141h-1V130.41h1v2h.07a2.92,2.92,0,0,1,2.66-2.26,2.68,2.68,0,0,1,1.89.58l-.49,1A2.21,2.21,0,0,0,269.58,131.21Z"/><path class="a" d="M276.09,131.21q-2.45.22-2.59,4V141h-1V130.41h1v2h.07a2.92,2.92,0,0,1,2.66-2.26,2.68,2.68,0,0,1,1.89.58l-.49,1A2.21,2.21,0,0,0,276.09,131.21Z"/><path class="a" d="M283.16,141.18q-4.55-.29-4.76-5.31.21-5.6,5-5.75,4.34.22,4.55,5.6Q287.85,141.11,283.16,141.18Zm.07-10.11q-3.64.15-3.71,4.8.14,4.29,3.71,4.51,3.5-.07,3.64-4.59-.21-4.43-3.64-4.72Z"/><path class="a" d="M299.19,141h-1.12l-2.24-9.68h-.07L293.31,141h-1l-3.5-10.62h1l2.94,9.82h.07l2.45-9.82h1l2.31,9.82h.07l3-9.82h1Z"/><path class="a" d="M12.34,74.06h5.54q-.13,2.39-.25,4.66Q18,93.32,30.72,98.61q-.63.76-1.89,2.14-1.39,1.89-2.14,2.77Q17.88,98.74,15.36,90.3q-2,7.81-12,13.6A35.73,35.73,0,0,0,0,99.24q12.09-6,12.09-18Q12.34,78.21,12.34,74.06Z"/><path class="a" d="M36.71,98.36H49.3V93.7H39V88.92H49.3V84.63h-6q-.63,1.26-2,3.78c.08-.17,0,0-.25.38q-1-.63-4.78-2.52A32.68,32.68,0,0,0,41,75.19l5.29.88q-.5,1.89-1.13,3.65H49.3V73.93h5.41v5.79h9.95v4.91H54.71v4.28H63.4V93.7H54.71v4.66h11.2V103H36.71Z"/><path class="a" d="M70.65,99.87q1.13-3.52,2-6.8l4,.88q-.5,1.64-1.51,5a9,9,0,0,1-.25,1h1q1.63.13,1.51-1.51V92.31H72.29V82.24H86V92.31H81.85v7.18q.12,4-3.78,4.15-1.39.12-3.52.13a5.34,5.34,0,0,0-.25-1.26l-.38-1.89Zm6.42-25.93h4.41V76.7H87v4H71.41v-4h5.67Zm-.38,12.21v2.27H81.6V86.15ZM93.94,73.93l-.13,7.3h7.55v4.28h-7.8l-.13,2.14H96.7V98.23c0,.59.17.88.5.88h.25q.5.13.63-.88t.25-4.91v-.63a25.94,25.94,0,0,0,3.4,1.13,56.45,56.45,0,0,1-.5,6.29q-.5,3.27-3.9,3.15h-1.5q-3.53.12-3.52-3.53v-5.4a37,37,0,0,1-4.41,9.95l-1.13-.75q-.76-.63-3-2.14a18.44,18.44,0,0,0,2.14-3l-2.27.76-.76-2.27Q82.36,95,82,94l3.65-1a12.68,12.68,0,0,1,.63,1.76,9.35,9.35,0,0,1,.63,1.76q1.89-3.9,2.14-11H86.76V81.24h2.39V77.71q.12-2.52.13-3.78Zm.13,3,3.4-2.27q1.89,2.14,3.4,4L97.46,81l-1.64-2a22.63,22.63,0,0,0-1.75-2Z"/><path class="a" d="M106.6,92.94v-4h30.21v4H124.48v1.38h10V98h-9.95v1.51h12.59a25.19,25.19,0,0,0-1.13,3.9h-5.67q-4.66-.13-7-.13-7.43,0-9.57-2.77a11.79,11.79,0,0,1-4.15,3.9q-1.51-1.64-3.15-3.52a8.1,8.1,0,0,0,4.91-7.68l4.66.63-.38,1.89a5.27,5.27,0,0,0-.13.88,5.75,5.75,0,0,0,4.15,2.52V92.94Zm3.15-5.16V74.94h23.92V87.78Zm5-8.94V80H128.6V78.84Zm0,5.41H128.6V83H114.79Z"/><path class="a" d="M141.8,85.89h30.72v5.67H141.8Z"/><path class="a" d="M186.32,87.28h21.53V90.8h-14a3.47,3.47,0,0,1-.88,1h14q-.25,5.54-.38,7.68,0,4-4,4h-3.65q-.38-1.89-.63-2.9a24.73,24.73,0,0,1-4.53,3.65l-.5-.5q-1.64-1.39-2.52-2,5.16-2.77,6.8-6.55H196q-2.39,4-8.43,7.18a3.69,3.69,0,0,1-.38-.5,8.78,8.78,0,0,0-1.38-1.51,59.61,59.61,0,0,0-6.55,1.51,7.81,7.81,0,0,0-1.26.25l-.76-4.66q1.51-.25,2.64-.5V86.52h-2.14V81.74h2.14v-7.8h4.53v7.8h1.89v4.78h-1.89v9.57a8.89,8.89,0,0,1,2.14-.5q0,1.51.13,3.15a19,19,0,0,0,4.91-3.52H189.7a4.91,4.91,0,0,1-.88.63,10.82,10.82,0,0,0-1.26,1A39.19,39.19,0,0,0,185,93.58a18.86,18.86,0,0,0,4-2.77h-2.77Zm1.76-1V74.94H206V86.27Zm4.66-8.18v1.13h8.69V78.09Zm8.69,5.16V82h-8.69v1.26Zm.25,12A14.86,14.86,0,0,1,199,100h2a1.14,1.14,0,0,0,1.26-1.13,8.43,8.43,0,0,0,.13-1.76c.08-.84.13-1.47.13-1.89Z"/><path class="a" d="M225.29,91.56h5.29v1.26h12V96.6h-11.5Q233,99,243.3,99.24a27.48,27.48,0,0,0-1.26,2.64q-.63,1.38-.88,2-9.57-.88-13.09-4.16-3.28,2.77-13.22,4.41a21.53,21.53,0,0,0-1-2,23.09,23.09,0,0,0-1.13-2.39q9.82-.5,11.46-3.15H213.59V92.82h11.58a2.05,2.05,0,0,1,.13-.63ZM213.71,77h6.42q-.38-.63-1.13-1.76c-.25-.42-.42-.71-.5-.88l5.54-.63A19.92,19.92,0,0,1,225.92,77h4.28l1-1.64q.63-1.26.88-1.64l5.54.63a5.55,5.55,0,0,1-.5.76L235.87,77h6.55v3.78H230.58v1.38h10.2v3.78h-10.2V87.2h12.34v3.9H213.08V87.2h12.21V85.89H215.6V82.12h9.69V80.73H213.71Z"/><path class="a" d="M248.28,79.73h2.9q.38-2.77.76-5.79l4.78.38q-.13.63-.38,2-.38,2.27-.5,3.4h6.29v4.15q-.51,7.43-2.77,11.83l2.77,2.3-3,3.9-2.39-2.27q-2.52,2.39-5.41,4.66-1.39-1.64-3.27-3.65a24.25,24.25,0,0,0,5.29-4.28,7.35,7.35,0,0,0-1.13-1.13,1.2,1.2,0,0,0-.25.63L248,94q1.38-4.91,2.27-9.57h-2Zm6.55,4.66q-.63,3.4-1.38,6.42a26.57,26.57,0,0,1,2.39,1.89,27.33,27.33,0,0,0,1.64-8.31Zm23.54-9.32v4.78l-4.78,5.92V86.9h5.29v4.91h-5.29V99q.12,4.53-4.78,4.66-.88,0-2.52.13h-2.14a41.53,41.53,0,0,0-1-4.78q1.63.13,3.27.13,2.14.13,2-1.89V91.81H262.5V86.9h5.92V84.51l3.78-4.66h-8.56V75.07Z"/><path class="a" d="M313.19,97.22q0,6-5.54,6.17-2.27.12-5.79.13a13.39,13.39,0,0,1-.25-1.51q-.25-1.51-.75-3.4,1.51.13,4.53.13,2.77.25,2.77-2.64V90.8q.12-5.29.13-7.43h-4.41a32.7,32.7,0,0,1-1.76,3.9q-1.89-1-3.9-2.14v18.25H293.3v-1.76h-3.65v1.89h-4.91V78.59h3.52a37.76,37.76,0,0,0,.88-4.66l5.54.63a8.37,8.37,0,0,0-.25,1,26.69,26.69,0,0,1-.76,3h4.53v5.29a63.21,63.21,0,0,0,3.8-10l5,1.13a15.93,15.93,0,0,1-.5,1.76q-.38,1.26-.63,1.89h7.68Q313.31,92.44,313.19,97.22ZM289.65,83.38v4.41h3.65V83.38Zm0,9.19V97h3.65V92.57Zm13.6-5.79q1.13,1.39,3.27,4.28.88,1.26,1.38,1.89l-4.28,2.77q-2.64-4-4.41-6.42Z"/><path class="a" d="M349.52,76.83V81H337.31a23,23,0,0,1-1.89,2.77A87.35,87.35,0,0,0,347,82l1.64,4.41q-2.27.5-5.29.88a14.41,14.41,0,0,1,.25,1.51,5.33,5.33,0,0,1,.25,1.26l1-.5q.75-.38,2.77-1.64l2.27,4-4.78,2.14A15.54,15.54,0,0,0,349.9,100a36.23,36.23,0,0,0-4,3.65q-5.92-5.79-6.8-15.86a6.42,6.42,0,0,1-1.26.13V98a30.7,30.7,0,0,1,3.4-1q0,1.39.25,4.28a73.28,73.28,0,0,0-8.18,3l-1.51-4.53a6.72,6.72,0,0,1,1.38-.38V85.52a28.31,28.31,0,0,0-2.27-2.27l-.88-.88H325.6l-.13,3.15h6.17l-.25,14q.25,3.65-3.65,3.78a21.49,21.49,0,0,1-2.9.13l-.88-3.15q-.25.76-1,2.52a13.89,13.89,0,0,1-.63,1.64l-3.4-3.27q2.14-4,2.14-12.21V86.4q.12-2.64.13-4h-1.64V77.84h3.65v-3.9h5v3.9H332V80.1a25.48,25.48,0,0,0,3.27-6.17h5.29a30.14,30.14,0,0,1-1.13,2.9ZM325.35,90a35.34,35.34,0,0,1-1.13,9.19h1.64q1.38.13,1.38-1.26,0-5.41.13-7.93Z"/><path class="a" d="M354.89,75.45a26.74,26.74,0,0,1,3-.13q5.29-.38,7.55-.63l.75,4.41a22.21,22.21,0,0,1-3.4.25V82.5h3v4.66h-3V89.3q2.27,1.26,4,2.39l-2,4.15-2-1.76V104h-4.53V95.59A27.68,27.68,0,0,1,356,99.24q-.13-.5-.38-1.38-.76-2.64-1.13-3.78a38.6,38.6,0,0,0,3.78-6.92h-3.4V82.49h3.4V79.73q-1.51,0-2.9.13Zm11.83,17.88h6.17v-2q-3.53.13-6.42.13l-.13-4q7.93,0,18-.5l.25,3.9q-1.64.13-6.92.38v2.14h6.17v3.9h-6.17v2.14h7.43V103h-20V99.36h7.81V97.22h-6.17Zm16.87-7.68H367V75.19h16.62ZM371.76,79.1v2.77h7.18V79.1Z"/></svg>