<svg xmlns="http://www.w3.org/2000/svg" viewBox="0 0 327.31 440.35"><defs><style>.a{fill:#fff;}</style></defs><title>資產 2</title><path class="a" d="M121,367.13a10.4,10.4,0,1,0,10,10.39A10.2,10.2,0,0,0,121,367.13Zm0,16.25a5.87,5.87,0,1,1,5.64-5.86A5.76,5.76,0,0,1,121,383.38Z"/><path class="a" d="M10.17,341.24c.2-1.8.12-4.27,1.91-6.43s1-4.43,1.45-6.64c1.7-7.91.53-15.83-.35-23.74a66.87,66.87,0,0,1-.51-8.09c0-2.91.4-5.83.62-8.74a3.12,3.12,0,0,0,0-.59,53.33,53.33,0,0,1-.64-5.79,40.76,40.76,0,0,0-1.06-8.84,40.84,40.84,0,0,1-1-8.15c-.07-3.44-2.44-5.94-6.5-7.91-.44-.22-.88-.44-1.31-.67-.69-.38-1.4-.75-2-1.17-1-.68-1-1.39.15-2,1.89-1.08,6.08-1.34,8.3-.59a1.88,1.88,0,0,0,1.31-.34c1.14-1.92,4.24-2.82,7.08-1.92,3.92,1.25,7.85,2.49,11.66,3.87,3.15,1.14,6.27,1,9.61.53a109.1,109.1,0,0,1,11-1.11c7.68-.29,15.37-.39,23.06-.52,5.93-.1,11.86-.13,17.78-.17a6,6,0,0,0,3.07-.84c3.08-1.71,5.08-4,7.46-6,2.62-2.27,2.76-2.3,6.21-.63a40.5,40.5,0,0,1,3.86,2c4.22,2.67,9.16,4.69,13.89,6.91l.13.05c2.1,1,2.11,1.44-.21,2.28a45.58,45.58,0,0,1-4.42,1.2,7,7,0,0,0-5.21,4c-1.11,2.5,0,5,.18,7.45a86.2,86.2,0,0,1,.28,8.76,53.89,53.89,0,0,0,.05,10.34,94.16,94.16,0,0,1,.44,13c0,3.49-.36,7,.88,10.42a2.18,2.18,0,0,1,0,1.18,18,18,0,0,0-.32,7.18c.91,4.83.15,9.66-.07,14.5,0,.66-.15,1.31-.15,2,0,4.72-3.9,8.19-8.76,11.24-2.82,1.77-6.62,1.29-8.48-1a17.19,17.19,0,0,1-2.06-3.88c-.46-1-.76-2-1.2-2.94s-1.55-1.49-3.29-1.42c-5.67.24-11.34.45-17,.59-3.16.08-6.32-.05-9.48,0-2.06,0-4.13.13-6.19.23L38.55,339.9c-1.65.08-3.32.09-5,.16-2.7.11-3.44.57-4,2.29a14.58,14.58,0,0,1-6.07,7.35c-2.29,1.53-3.16,1.85-6.55.4C12.43,348.2,9.93,345.46,10.17,341.24ZM96,314.65h0c0-4.67,0-9.34,0-14,0-1-.57-1.41-2-1.49l-9.16-.52c-1.3-.08-2.59-.23-3.89-.26s-2.75,0-4.13,0-2.65,0-4-.05a25.93,25.93,0,0,0-5,0,64.09,64.09,0,0,1-9.44,1.15c-8.61.44-17.22.93-25.82,1.42-2.09.12-2.8.6-3.05,2a5.54,5.54,0,0,0-.08,1.28q.61,12.88,1.24,25.75c.08,1.56,1.33,2.56,3.74,2.74,2.83.21,5.7.29,8.54.26s5.62-.31,8.27.58a2.49,2.49,0,0,0,.88,0c2.39-.19,4.78-.37,7.16-.59,8.82-.81,17.68-1.31,26.59-1.25,1.46,0,2.92,0,4.37,0,4.41-.13,5.78-1.13,5.7-4-.07-2.5,0-5,0-7.5Q96,317.41,96,314.65ZM28.69,282.8a13.82,13.82,0,0,0,0,1.63,38.24,38.24,0,0,0,.81,5.18c.52,1.88,3,3.13,5.94,3.14,6.13,0,12.28.15,18.39-.09s11.88-1,16.5-3.9a12.88,12.88,0,0,1,1.68-.83,7.9,7.9,0,0,1,8.22.51c2.75,1.63,5.7,3.11,8.6,4.63a15.7,15.7,0,0,0,2.34.89c2.87.94,4.68.23,4.51-1.82-.19-2.2-.56-4.39-.78-6.59-.41-4-.81-8-1.14-12a12.17,12.17,0,0,1,.38-2.31,11.16,11.16,0,0,0,.14-2.44c-.12-1.16-.52-2.31-.61-3.47a38,38,0,0,1,0-4.34c0-.9-.48-1.36-1.92-1.34-6.49.08-13,.09-19.46.24-11.05.25-22.11.57-33.16.89a65.17,65.17,0,0,0-6.89.42c-3.14.43-4.32.82-4.33,3.09,0,1.9.23,3.8.31,5.7C28.39,274.32,28.54,278.69,28.69,282.8Z"/><rect class="a" x="22.4" y="268.06" width="78.98" height="29.22"/><path class="a" d="M177.5,278.36c-.51-9.18-.89-18.37-1.59-27.53-.4-5.22-1.19-10.41-2.06-15.57-.5-3-1.8-5.61-4.61-7.18-1.78-1-1.77-2.2-.18-3.45,2.25-1.76,4.74-3.31,7.52-3.45,2-.1,4,.86,6,1.44A18.06,18.06,0,0,1,185,223.7c3.45,1.59,6.63.45,9.72-1.13,1.64-.84,1.9-1.75,1.32-3.58-.35-1.09-.83-2.15-1.12-3.25-.38-1.44,0-2,1.4-1.82,3.13.41,6.44,0,9.23,2.12a2.13,2.13,0,0,0,1.44.37c2.92-.41,5.37.81,7.64,2.46,3.18,2.31,6.31,4.71,9.4,7.15,1.47,1.16,2.61,1.23,3.67-.34a15.5,15.5,0,0,0,2.6-10.1,5.79,5.79,0,0,0-1.11-2.27c-.37-.6-.92-1.09-1.3-1.69-.72-1.14-.29-2.72.92-2.91,2-.31,4.13-.63,5.71.93,2.38,2.34,4.57,4.9,6.78,7.42a1.83,1.83,0,0,1,.24,1.46,20.71,20.71,0,0,1-4.44,8.63c-2.69,2.89-2.79,4.85-.88,8.32a51.54,51.54,0,0,0,3.65,6,5.75,5.75,0,0,1,.67,5.59,11.62,11.62,0,0,1-2.43,4.1,10,10,0,0,0-3,6.45c-.09,1.37-1.07,2.7-1.69,4a36.9,36.9,0,0,0-2.39,5.11,3.73,3.73,0,0,0,.83,3,66.1,66.1,0,0,0,6.25,5.92,5.1,5.1,0,0,1,1.93,3.49c.06.48.08,1,.18,1.43.56,2.57,1.57,3.15,4.09,2.8,2.25-.31,4.53-.36,6.79-.54,2-.16,4-.27,6-.54a5,5,0,0,0,4.5-5.56,15.71,15.71,0,0,0-1.08-4.56,3.16,3.16,0,0,0-3.39-2c-4.08.2-8.15.46-12.23.55a3.18,3.18,0,0,1-2.2-1.09,2.34,2.34,0,0,1,1.07-4,33.51,33.51,0,0,1,5.94-1.35c2.53-.32,5.09-.31,7.63-.52,3.16-.27,4.51-1.6,4.8-4.86a40.24,40.24,0,0,0,.08-5.49c-.1-2.12-1-3.07-3-2.93-2.62.18-5.22.68-7.83,1-1.56.22-3.11.56-4.67.66-1.74.11-2.4-.64-2.49-2.5,0-.67,0-1.35,0-2,0-2.08.62-3,2.51-3.58a10.88,10.88,0,0,1,7.76.08c.77.31,1.58.54,2.37.8,3.24,1.06,5.82-.42,6.11-3.94.33-4,.21-8,.25-12,0-1.24-.65-1.89-1.86-1.73-3.07.41-6.12.91-9.19,1.26a35.87,35.87,0,0,1-5.51.28,2.52,2.52,0,0,1-2.39-2.41,2.44,2.44,0,0,1,1.68-2.78c3-1.42,6.17-1.66,9.35-2,2.35-.22,4.73-.16,7.09-.19,1.43,0,2.53-.45,3-2a9.78,9.78,0,0,1,3.65-4.91,18.15,18.15,0,0,0,3.08-3.81c1.58-2.28,3.07-2.66,5.3-1.09.87.62,1.61,1.45,2.45,2.12,1.46,1.16,2.91,2.33,4.43,3.39a7.08,7.08,0,0,1,2.13,9.06c-1.52,2.91-3.47,5.61-4.73,8.63a46.11,46.11,0,0,0-3.18,10.38c-1,6.59-1.57,13.27-2.28,19.92-.45,4.16-.94,8.32-1.21,12.49-.2,3,.7,4.14,3.56,4.66,1.63.29,19.58.6,21.16.27a10,10,0,0,0,3.72-2.28,13.59,13.59,0,0,0,1.77-2.22c2.19-2.69,4.73-2.56,7,.11a51.83,51.83,0,0,0,4.66,4.53c3.4,3.16,6.69,6.45,8.7,10.76a33.2,33.2,0,0,1,1.76,6,1.66,1.66,0,0,1-1.24,2.11,53.69,53.69,0,0,1-6.52,1.94,48.73,48.73,0,0,1-8.56.89c-3.09,0-6.07.13-8.83,1.76a3.6,3.6,0,0,1-1.18.39c-3,.53-4-.07-4.37-3.18a55.12,55.12,0,0,1-.07-6.71.87.87,0,0,1,0-.14c.75-4.41-16.64-6-20.94-5.82-2.87.09-5.72.55-8.59.71-5,.28-10,.38-15,.68-10.23.62-20.46,1.32-30.69,2a11.93,11.93,0,0,1-1.25.05,36.89,36.89,0,0,0-10.18,1,22.6,22.6,0,0,1-5.79.58c-5.06-.13-9.94,1.06-14.87,1.88a63.46,63.46,0,0,1-6.37.44c-2.72.18-5.45.31-8.17.56-.85.08-14.22.39-15,.81a2.21,2.21,0,0,0-.89,1.4,6.09,6.09,0,0,0,.13,2c1.24,7.77-1,14.14-7.07,18.95-1.51,1.2-3.07,2.32-4.68,3.37-2.53,1.66-5.18,1.26-7.68,0-1.88-.94-2.25-2.73-1.18-4.64,3.33-6,5.08-12.53,6.6-19.18a62.6,62.6,0,0,0,1.29-18.94c-.15-2-.78-3.94-1.13-5.93a19.41,19.41,0,0,1-.33-3.28c0-.89.63-1.28,1.31-.71a8.32,8.32,0,0,1,2,2.32,36.32,36.32,0,0,1,3.72,10c.57,2.86,2.36,5.07,4.33,7.09a.86.86,0,0,0,.24.15c1.47.74,18.93-.06,20-1.32a4.11,4.11,0,0,0,1.08-2.1c.26-2.76.34-5.55.49-8.32Zm11.55-45.25c.16,1.18.35,2.09.39,3,.14,2.83.18,5.66.36,8.48a1.73,1.73,0,0,0,2.49,1.68,58.29,58.29,0,0,0,6.66-2.71c2.09-1,4-2.39,6.44-2.48,1.51-.06,1.93.38,2,1.91.11,3.73-1.59,6-5.14,6.72-3.2.62-6.28,1.92-9.66,1.62-1.68-.15-2.41,1-2.55,2.75-.12,1.53-.41,3.05-.5,4.58-.15,2.59-.26,5.18-.28,7.78a2,2,0,0,0,1.85,2.19,21,21,0,0,0,4.95.18c2.38-.31,4.71-1,7.07-1.51a1.9,1.9,0,0,1,2.54,1.7,3.91,3.91,0,0,1-2.71,4.58,26.72,26.72,0,0,1-4.39.59c-1.94.12-3.9,0-5.84.16-2.3.17-3.47,1.38-3.58,3.77a36.49,36.49,0,0,0,.18,5.62,3.21,3.21,0,0,0,2.67,3.12c5,.72,10,.77,14.81-1.17a9.74,9.74,0,0,0,3.24-2.8,20.82,20.82,0,0,0,1.86-3.08c.29-.49.66-.93.93-1.43,1.38-2.59,2.64-5.25,4.13-7.77a6.86,6.86,0,0,0-.12-7.83,56.52,56.52,0,0,0-4.06-4.52c-.53-.57-1.25-1.17-.61-1.94.44-.53,1.37-1.13,1.91-1a9.47,9.47,0,0,1,3.12,1.68c1,.73,1.68,1.8,2.64,2.55,1.69,1.32,3.25.93,4.31-.95a7.42,7.42,0,0,0-.34-8.14c-1-1.59-.68-2.4,1.07-2.94,1.37-.42,2.77-.76,4.1-1.3s1.67-1.43,1.31-2.91a2.51,2.51,0,0,0-2.53-2.2,6.51,6.51,0,0,0-5,3c-1,1.33-1.85,2.76-2.85,4.08-1.27,1.67-2.79,3-5,3.07a1.94,1.94,0,0,1-1.5-.82,2.18,2.18,0,0,1,.1-1.76c.54-1,1.33-1.84,2-2.79,2.09-3.16,4.29-6.26,6.17-9.56.72-1.26,1.81-3,.32-4.52-3.76-3.78-7.61-7.46-11.47-11.13a3.38,3.38,0,0,0-1.77-.67c-.87-.13-1.41.23-1.35,1.29a23.73,23.73,0,0,1-.07,2.74c-.1,1.56-.69,2.86-2.22,3.33-3.32,1-6.68,1.89-10,2.88C192.82,230.89,190,230.5,189.06,233.11Zm32.06,52.13c1.94-.51,4.25-1,6.47-1.74a2.48,2.48,0,0,0,1.51-3.07,20,20,0,0,0-1.7-4.51,3,3,0,0,0-4.07-1.45c-3.93,1.46-6.15,4.61-7.47,8.54-.26.77-.1,1.42.89,1.55C218.06,284.73,219.39,285,221.12,285.24Z"/><path class="a" d="M185.78,311.6a7.59,7.59,0,0,1,1.28-.32c13-.73,26-1.41,38.93-2.18,2.45-.15,4.89-.84,7.34-.92a18.82,18.82,0,0,1,5.21.8c4.16,1.07,5.24.78,7.57-3.74,1.42-2.77,2.61-5.82,4-8.62s1.71-2.74,3.14-.16c1.91,3.45,3.73,7,5.61,10.5.67,1.25,1.38,2.48,2.12,3.64,2.37,3.7,1.87,8.14-1.28,10.37-2.18,1.53-4.52,2.56-6.63,4.26-4.57,3.67-9.06,7.6-13.56,11.47-1.54,1.32-2.28,3.27-2.17,6.11.12,3.24-.1,6.5,0,9.73a28.42,28.42,0,0,0,.88,6.15c1,3.79,3.61,5.39,6.69,4.26a30.75,30.75,0,0,1,9.08-1.58c3.67-.21,7.33-1.09,11-1.67,1.8-.28,3.6-.55,5.4-.76,1.63-.19,2.86-1.12,4.06-3,1.93-3.09,4.26-5.59,6.38-8.42a30.5,30.5,0,0,0,2.71-4.17c1.21-2.33,2.57-2.81,4.37-1.46a24.54,24.54,0,0,1,6.31,7.79c.36.64.93,1.41,1.42,1.43,3.19.12,4.89,3.36,6.3,7a16.63,16.63,0,0,1,.87,5c.1,2.3-.65,3.3-2.18,3.48-2.68.31-5.36.72-8,.87-7.83.43-15.66.87-23.49,1.09s-15.68.15-23.52.3a14.56,14.56,0,0,0-4.12.81c-1.82.58-2.86,2.61-2.87,5.44,0,5.29.19,10.61,0,15.88-.26,6.31-.58,12.68-1.4,18.86a31.81,31.81,0,0,1-5.28,14.08c-2.32,3.33-4.28,7.22-6.49,10.73a23.87,23.87,0,0,1-3.31,4.15c-2.4,2.4-4.72,2.14-6.63-1.13a43.74,43.74,0,0,1-3.61-8.2,11,11,0,0,0-5.6-6.89c-3.44-1.83-6.74-4.23-10.08-6.46a5.7,5.7,0,0,1-1.56-1.72,3,3,0,0,1-.4-1.81,1.33,1.33,0,0,1,1.09-.91,27.81,27.81,0,0,1,5.11.8,15.42,15.42,0,0,0,10.72-.75,9.6,9.6,0,0,1,5-.49c1.93.25,3.14-.54,3.74-3.38a17.44,17.44,0,0,0,.44-3.3q.19-13.34.29-26.68c0-3.71-.46-4.54-2.93-4.42-3.19.15-6.37.56-9.56.78-1.18.08-2.37-.26-3.55-.11a26.5,26.5,0,0,0-2.83,1c-5.2,1.33-10.39,2.81-15.63,3.82-4,.76-8,.68-11.93,1.34-3.17.53-6.29,1.65-9.45,2.4-1.6.38-3.22.5-4.83.77s-2.68-.82-3.06-2.85a84.14,84.14,0,0,1-1.13-9.69c0-.62,1-2.08,1.41-2,4.89.71,9.51-2.12,14.31-2.37,11.22-.59,22.43-1.08,33.65-1.61,3.71-.18,7.42-.29,11.12-.6a9.46,9.46,0,0,0,3.65-1.17c2-1.08,2.69-3.76,2.62-6.6-.13-5.27-.49-10.53-.85-15.78-.23-3.36-.66-6.69-.93-10.05-.06-.69.07-1.92.31-2a1.67,1.67,0,0,1,1.54.33c1.85,1.23,3.6,2.85,5.51,3.78,3.94,1.93,6.14-1,7.66-5.91a40.08,40.08,0,0,0,1.26-6.67c.32-2.46-.24-3.73-1.85-3.58a80.89,80.89,0,0,0-8.65,1.56c-2.47.5-4.94,1.58-7.39,1.5-4.57-.15-8.93,1.19-13.28,2.93a4.68,4.68,0,0,1-1.23.36c-3.89.4-7.78.6-11.66,1.21-2.1.33-3.5-.75-4.39-3.49C187.64,317.8,186.77,314.82,185.78,311.6Z"/><rect class="a" x="172.06" y="352.36" width="57.85" height="18.38"/><rect class="a" x="251.11" y="220.55" width="23.85" height="61.66"/><path class="a" d="M95.93,208c1.07-1.54,2.13-3.09,3.22-4.61,2.23-3.13,4.52-6.2,6.7-9.39a18.15,18.15,0,0,0,1.25-3,10.43,10.43,0,0,1,1.12-2.32c2.23-2.8,3.41-6.28,4.6-9.83A49.47,49.47,0,0,1,116,172a51.64,51.64,0,0,0,4.28-12.71c.51-2.33,1.67-4.44,2.42-6.7a13.23,13.23,0,0,0,.85-3.94c0-5.24,1.53-10.07,2.56-15,.47-2.26.74-4.58,1.16-6.85.34-1.88.78-3.73,1.17-5.59.09-.43.33-1,.2-1.3-1-2.4-.31-4.86.23-7,1.64-6.62,1.82-13.35,1.9-20.17.09-7.89.46-15.78.81-23.66.1-2.27.55-4.51.82-6.78a7,7,0,0,0,0-1.49c-.22-2.08-.61-4.15-.65-6.24q-.23-12.1-.25-24.2a53.49,53.49,0,0,0-1.87-13.62,5.24,5.24,0,0,1-.24-1.51,3.42,3.42,0,0,0-1.53-3.42c-1.3-.86-1.13-3.21.23-4.07a7.29,7.29,0,0,1,7.67-.3c2.61,1.4,5,3.48,7.53,5.09a18.35,18.35,0,0,0,4.53,2,2.39,2.39,0,0,0,2-.88,6.4,6.4,0,0,1,4.72-2.51c5.7-.16,11.41-.41,17.11-.56a4.08,4.08,0,0,0,3.15-1.46c1.64-1.84,3.37-3.57,5-5.4A8.33,8.33,0,0,0,181,1.88c.86-1.73,2.26-2.45,3.65-1.39a51.13,51.13,0,0,1,4.49,4.25,1.38,1.38,0,0,1,.41.87c-.14,3.81,2.5,6,3.27,9.2l.5-.1.35-4.43a23.19,23.19,0,0,1,2.8,2.54,3.77,3.77,0,0,1,0,4.4A65.6,65.6,0,0,1,192,24.12a6.05,6.05,0,0,0-1.37,4.7c1.42,15,2,30,2,45a5.83,5.83,0,0,1-.12,2c-.77,1.85-.41,3.67-.15,5.53a25.69,25.69,0,0,1,.32,2.71c.25,6.74.34,13.49.74,20.22.46,7.63,1.23,15.24,1.8,22.86.49,6.41,1.44,12.77.46,19.3-.39,2.6.22,5.42.27,8.14s0,5.25-.09,7.87c-.3,5.94-.66,11.87-1.06,17.79a8.09,8.09,0,0,1-.67,2.7c-4.2,9.3-10.51,16.14-17.36,22.32a7.89,7.89,0,0,1-5.54,2.37c-1.57-.05-2.41-.76-2.63-2.62a23.14,23.14,0,0,0-9.56-16.56,34.26,34.26,0,0,0-4.47-2.26,8.92,8.92,0,0,1-1.47-1.29l.11-.58a5.79,5.79,0,0,1,1.64-.36c3.15.24,6.29.58,9.44.84,2.36.19,4.72.35,7.08.46,1.54.07,2.59-1.13,3.14-2.66,1-2.9,1.92-5.91,2.76-8.92a33.25,33.25,0,0,0,1.19-5.62,26.67,26.67,0,0,0-.05-5.95,27.94,27.94,0,0,1,.8-11.48,14.92,14.92,0,0,0,.53-3.69c.22-8.86.38-17.73.58-26.59,0-.79.3-1.57.31-2.35,0-1.34-.08-2.68-.15-4,0-.56-.16-1.12-.16-1.69,0-1.77,0-3.55,0-5.32a56.81,56.81,0,0,0-.68-8.95,48.39,48.39,0,0,1-.18-17.69,3.28,3.28,0,0,1,.22-1c.84-1.41,1.31-2.76-.1-4.11-.16-.15-.14-.64-.15-1-.23-6.17-.51-12.33-.64-18.5-.05-2.37.36-4.76.32-7.13,0-2.1-.37-4.19-.59-6.29-.63-5.89-1.3-11.77-1.88-17.67A6.07,6.07,0,0,1,177,22a1.65,1.65,0,0,0-.51-2.26c-2.36-2.09-5.1-2.69-7.88-3-5.24-.5-10.49-.47-15.59,1.39a18.56,18.56,0,0,0-8.86,7.35,4.87,4.87,0,0,0-.56,2.22c-.22,3.18-.37,6.37-.55,9.56a1.77,1.77,0,0,0,0,.67c1.06,2.77.21,5.51-.07,8.25a24.53,24.53,0,0,0,1.11,10.23c.48,1.48,1.41,2.4,2.84,2.14,4.21-.77,8.42-1.56,12.63-2.29q3.58-.62,7.17-1.06c1.14-.14,2,.41,2.25,1.94.31,1.86-.07,3-1.4,3.6a8.92,8.92,0,0,1-3.23,1c-4.11.12-8.2.9-12.35.18A10.54,10.54,0,0,0,146.52,63c-2.37,1-3.05,3.67-3.1,6.5-.08,4.74,0,9.49-.09,14.23-.08,4.12-.34,8.23-.43,12.34a10.78,10.78,0,0,0,.46,3.31,2.45,2.45,0,0,0,2.48,2,46.54,46.54,0,0,0,17.09-3.32c1.5-.58,3-1.16,4.54-1.58a5.09,5.09,0,0,1,2.2,0c1.24.22,1.87,1.11,1.75,2.73s-.15,3.08-.3,4.62a2.48,2.48,0,0,1-2.22,2.49c-7.94,1.73-16.07.76-24,2.65a3.65,3.65,0,0,0-3.1,3.11c-.64,3-1.51,5.87-2,8.86-.25,1.45.2,3.06.09,4.57a59.58,59.58,0,0,1-.83,5.9c-.85,4.8-1.66,9.6-2.66,14.35a18.36,18.36,0,0,1-1.89,5.1c-2.91,5.19-5,10.89-7.2,16.56-2.46,6.36-5.44,12.35-9.58,17.29-1.25,1.49-2.89,2.48-4.22,3.89a38.94,38.94,0,0,0-2.86,3.85c-.12.17-.17.42-.3.57-4.13,4.83-8.26,9.67-12.42,14.46a6.32,6.32,0,0,1-1.61,1Z"/><path class="a" d="M97.83,120.73c0-1.55,0-3.21,0-4.87,0-1.27-.39-2.08-1.35-2.17-3.84-.36-7.62-2.06-11.57-.7-1.16.4-2.48.05-3.73,0-3.15-.06-4.81.57-5.92,4.21-.47,1.55-1,3.08-1.47,4.62a6.29,6.29,0,0,0,0,4.63,6,6,0,0,1-.18,5.36c-1.62,3.29-3.8,5.64-7,6.53-2.6.72-3.47-.75-4-3.3a27.36,27.36,0,0,1-.37-6.44c.16-4.05.62-8.09.77-12.14.35-9.07.45-18.15.91-27.21.6-11.68,0-23.33-.09-35,0-2.69-.08-5.38,0-8.06,0-1.05.43-2.08.54-3.14a13.73,13.73,0,0,0,0-2.67c-.07-.84-.39-1.66-.44-2.5-.29-4.72-.49-9.46-.81-14.18A44.75,44.75,0,0,0,59.61,9.29c-.73-1.72-.53-2.16,1-2.49a7.31,7.31,0,0,1,6.55,1.85c3.25,2.69,6.7,5,10.11,7.43a3.26,3.26,0,0,0,1.89.42c6.17-.06,12.34-.13,18.51-.32a3,3,0,0,0,2-1.24c1.41-1.81,2.61-3.86,4-5.67,2.46-3.18,5.42-3.52,8.11-.7a60,60,0,0,1,5.39,6.86c1.11,1.58,1,2.68-.13,4.25s-2.43,2.83-3.51,4.39a5.75,5.75,0,0,0-1,2.84c-.3,9-.63,17.95-.69,26.93,0,5.3.6,10.6.6,15.9s-.44,10.73-.63,16.09c0,1.36.19,2.73.24,4.09.12,3,.33,5.92.27,8.88-.11,5.72-.34,11.43-.58,17.14s-1.63,10.76-4.7,15a10.75,10.75,0,0,1-2.48,2.44c-2.79,2-5,.79-5.78-3.07a29.77,29.77,0,0,1-.61-3.34C98,125,97.95,122.89,97.83,120.73Zm-7.71-14.87.05.64c2.34-.3,4.7-.52,7-.91,1.65-.28,2.24-1.22,2.25-3.23s0-4.23,0-6.35a10.41,10.41,0,0,1,.33-1.6,21.25,21.25,0,0,0,.42-2.65c0-.84-.17-1.71-.15-2.55.22-7.13-.14-14.24.41-21.4.53-7-.68-14,.05-21.16.62-6,.39-12.2.5-18.31a21,21,0,0,0-.19-3.41c-.37-2.49-1.28-3.34-3.33-3.32-5.55,0-11.08.93-16.67.09-3.69-.55-6.43,3.09-6.44,7.68,0,8.75,0,17.5,0,26.26a8.69,8.69,0,0,1-.2,2.19c-.75,2.78,0,5.14,2.28,5.95a6.78,6.78,0,0,0,3.41.32A38.88,38.88,0,0,1,94,64.33c.49.09,1.22.69,1.28,1.14a4.2,4.2,0,0,1-.68,2c-.12.24-.48.35-.74.4-2.73.58-5.45,1.29-8.19,1.64-2.16.28-4.36,0-6.53.16-2.92.18-4.39,1.79-4.59,5.38-.14,2.6.12,5.24.2,7.86a25.8,25.8,0,0,1,.08,4.76,37.64,37.64,0,0,0,.36,14.08c.76,3.53,3.41,5.56,6.24,5.15S87.22,106.2,90.12,105.85Z"/><rect class="a" x="68.9" y="22.03" width="35.13" height="44.73"/></svg>